<svg width="64" height="64" viewBox="0 0 64 64" fill="none" xmlns="http://www.w3.org/2000/svg">
<circle cx="32" cy="32" r="30.5" fill="#F5F5F5" stroke="#CD7F32" stroke-width="3"/>
<path fill-rule="evenodd" clip-rule="evenodd" d="M33.8667 20.2667C33.8667 19.6655 33.6279 19.089 33.2028 18.6639C32.7777 18.2388 32.2012 18 31.6 18C30.9989 18 30.4223 18.2388 29.9973 18.6639C29.5722 19.089 29.3334 19.6655 29.3334 20.2667V29.3334H20.2667C19.6655 29.3334 19.089 29.5722 18.6639 29.9973C18.2388 30.4223 18 30.9989 18 31.6C18 32.2012 18.2388 32.7777 18.6639 33.2028C19.089 33.6279 19.6655 33.8667 20.2667 33.8667H29.3334V42.9334C29.3334 43.5346 29.5722 44.1111 29.9973 44.5362C30.4223 44.9613 30.9989 45.2001 31.6 45.2001C32.2012 45.2001 32.7777 44.9613 33.2028 44.5362C33.6279 44.1111 33.8667 43.5346 33.8667 42.9334V33.8667H42.9334C43.5346 33.8667 44.1111 33.6279 44.5362 33.2028C44.9613 32.7777 45.2001 32.2012 45.2001 31.6C45.2001 30.9989 44.9613 30.4223 44.5362 29.9973C44.1111 29.5722 43.5346 29.3334 42.9334 29.3334H33.8667V20.2667Z" fill="#CD7F32"/>
</svg>
