<svg xmlns="http://www.w3.org/2000/svg" fill="none" viewBox="0 0 25 18.31">
<path d="M23.7492 1.33514e-05L1.24861 1.33514e-05C1.0208 0.000711441 0.797501 0.0621758 0.602743 0.177792C0.407988 0.293407 0.249151 0.458792 0.143332 0.656149C0.0375118 0.853506 -0.0112858 1.07536 0.00219345 1.29783C0.0156727 1.5203 0.0909176 1.73496 0.219828 1.9187L11.4701 17.8161C11.9364 18.4752 13.0589 18.4752 13.5265 17.8161L24.7768 1.9187C24.907 1.73534 24.9834 1.52057 24.9976 1.29773C25.0118 1.07489 24.9633 0.852505 24.8574 0.654732C24.7515 0.456957 24.5922 0.291357 24.3968 0.17593C24.2014 0.060503 23.9775 -0.000339508 23.7492 1.33514e-05Z" fill="#CD7F32"/>
</svg>