<svg width="48" height="48" viewBox="0 0 48 48" fill="none" xmlns="http://www.w3.org/2000/svg">
<path opacity="0.9" d="M1.31864 46.6814C1.73607 47.0994 2.23181 47.431 2.77752 47.6573C3.32322 47.8835 3.90817 48 4.49893 48C5.08968 48 5.67463 47.8835 6.22034 47.6573C6.76604 47.431 7.26178 47.0994 7.67921 46.6814L24.0007 30.3659L40.3221 46.6814C40.7398 47.099 41.2356 47.4303 41.7812 47.6563C42.3269 47.8823 42.9118 47.9987 43.5024 47.9987C44.093 47.9987 44.6779 47.8823 45.2236 47.6563C45.7692 47.4303 46.265 47.099 46.6827 46.6814C47.1003 46.2637 47.4316 45.7679 47.6576 45.2222C47.8837 44.6766 48 44.0917 48 43.5011C48 42.9104 47.8837 42.3256 47.6576 41.7799C47.4316 41.2342 47.1003 40.7384 46.6827 40.3208L30.3672 23.9993L46.6827 7.67789C47.5261 6.83442 48 5.69044 48 4.4976C48 3.30476 47.5261 2.16079 46.6827 1.31733C45.8392 0.473862 44.6952 0 43.5024 0C42.3096 0 41.1656 0.473862 40.3221 1.31733L24.0007 17.6328L7.67921 1.31733C6.83575 0.473862 5.69176 0 4.49893 0C3.30609 0 2.16211 0.473862 1.31864 1.31733C0.475181 2.16079 0.00132763 3.30476 0.00132763 4.4976C0.00132763 5.69044 0.475181 6.83442 1.31864 7.67789L17.6341 23.9993L1.31864 40.3208C0.900622 40.7382 0.568995 41.234 0.34273 41.7797C0.116464 42.3254 0 42.9103 0 43.5011C0 44.0918 0.116464 44.6768 0.34273 45.2225C0.568995 45.7682 0.900622 46.2639 1.31864 46.6814Z" fill="#CD7F32"/>
</svg>
