<svg width="60" height="60" viewBox="0 0 60 60" fill="none" xmlns="http://www.w3.org/2000/svg">
<path fill-rule="evenodd" clip-rule="evenodd" d="M16.6667 13.3333C16.6667 9.79711 18.0714 6.40573 20.5719 3.90524C23.0724 1.40476 26.4638 0 30 0C33.5362 0 36.9276 1.40476 39.4281 3.90524C41.9286 6.40573 43.3333 9.79711 43.3333 13.3333C43.3333 16.8696 41.9286 20.2609 39.4281 22.7614C36.9276 25.2619 33.5362 26.6667 30 26.6667C26.4638 26.6667 23.0724 25.2619 20.5719 22.7614C18.0714 20.2609 16.6667 16.8696 16.6667 13.3333ZM16.6667 33.3333C12.2464 33.3333 8.00716 35.0893 4.88155 38.2149C1.75595 41.3405 0 45.5797 0 50C0 52.6522 1.05357 55.1957 2.92893 57.0711C4.8043 58.9464 7.34784 60 10 60H50C52.6522 60 55.1957 58.9464 57.0711 57.0711C58.9464 55.1957 60 52.6522 60 50C60 45.5797 58.2441 41.3405 55.1184 38.2149C51.9928 35.0893 47.7536 33.3333 43.3333 33.3333H16.6667Z" fill="#CD7F32"/>
</svg>
