<svg width="72" height="72" viewBox="0 0 72 72" fill="none" xmlns="http://www.w3.org/2000/svg">
<circle cx="36" cy="36" r="33.5" stroke="#CD7F32" stroke-width="5"/>
<path d="M49.376 51.84L38.288 40.752C37.408 41.456 36.396 42.0133 35.252 42.424C34.108 42.8347 32.8907 43.04 31.6 43.04C28.4027 43.04 25.697 41.9324 23.4829 39.7171C21.2688 37.5019 20.1612 34.7962 20.16 31.6C20.16 28.4027 21.2676 25.697 23.4829 23.4829C25.6981 21.2688 28.4038 20.1612 31.6 20.16C34.7973 20.16 37.503 21.2676 39.7171 23.4829C41.9312 25.6981 43.0388 28.4038 43.04 31.6C43.04 32.8907 42.8347 34.108 42.424 35.252C42.0133 36.396 41.456 37.408 40.752 38.288L51.84 49.376L49.376 51.84ZM31.6 39.52C33.8 39.52 35.6703 38.7497 37.2109 37.2091C38.7515 35.6685 39.5212 33.7988 39.52 31.6C39.52 29.4 38.7497 27.5297 37.2091 25.9891C35.6685 24.4485 33.7988 23.6788 31.6 23.68C29.4 23.68 27.5297 24.4503 25.9891 25.9909C24.4485 27.5315 23.6788 29.4012 23.68 31.6C23.68 33.8 24.4503 35.6703 25.9909 37.2109C27.5315 38.7515 29.4012 39.5212 31.6 39.52Z" fill="#CD7F32"/>
</svg>
