<svg width="76" height="76" viewBox="0 0 76 76" fill="none" xmlns="http://www.w3.org/2000/svg">
<circle cx="38" cy="38" r="35.5" stroke="#CD7F32" stroke-width="5"/>
<path d="M56.5 56.5L44 44M19 33.5833C19 35.4984 19.3772 37.3948 20.1101 39.1641C20.843 40.9335 21.9172 42.5411 23.2714 43.8953C24.6255 45.2495 26.2332 46.3237 28.0025 47.0566C29.7719 47.7895 31.6682 48.1667 33.5833 48.1667C35.4984 48.1667 37.3948 47.7895 39.1641 47.0566C40.9335 46.3237 42.5411 45.2495 43.8953 43.8953C45.2495 42.5411 46.3237 40.9335 47.0566 39.1641C47.7895 37.3948 48.1667 35.4984 48.1667 33.5833C48.1667 31.6682 47.7895 29.7719 47.0566 28.0025C46.3237 26.2332 45.2495 24.6255 43.8953 23.2714C42.5411 21.9172 40.9335 20.843 39.1641 20.1101C37.3948 19.3772 35.4984 19 33.5833 19C31.6682 19 29.7719 19.3772 28.0025 20.1101C26.2332 20.843 24.6255 21.9172 23.2714 23.2714C21.9172 24.6255 20.843 26.2332 20.1101 28.0025C19.3772 29.7719 19 31.6682 19 33.5833Z" stroke="#CD7F32" stroke-width="4.16667" stroke-linecap="round" stroke-linejoin="round"/>
</svg>
