<svg width="29" height="25" viewBox="0 0 29 25" fill="none" xmlns="http://www.w3.org/2000/svg">
<path d="M20.6618 0.685656C20.5892 0.484743 20.4568 0.311155 20.2826 0.188482C20.1084 0.0658084 19.9009 0 19.6882 0C19.4755 0 19.2679 0.0658084 19.0937 0.188482C18.9195 0.311155 18.7871 0.484743 18.7146 0.685656L11.3358 21.0714L10.6419 19.3937C10.636 19.3797 10.6298 19.3658 10.6232 19.3521L7.1804 11.0471C7.10172 10.8575 6.96897 10.6955 6.79884 10.5816C6.62872 10.4677 6.42884 10.4069 6.22439 10.4069C6.01995 10.4069 5.82007 10.4677 5.64995 10.5816C5.47982 10.6955 5.34706 10.8575 5.26839 11.0471L1.82347 19.3521C1.81693 19.3658 1.81072 19.3797 1.80483 19.3937L0.0896196 23.5358C0.033395 23.6626 0.00299515 23.7995 0.000210376 23.9383C-0.00257439 24.0771 0.0223122 24.2151 0.0734046 24.3441C0.124497 24.4731 0.200762 24.5905 0.297709 24.6894C0.394656 24.7884 0.510324 24.8668 0.637903 24.9202C0.765481 24.9735 0.90239 25.0006 1.04057 25C1.17875 24.9993 1.3154 24.9709 1.44248 24.9164C1.56956 24.8619 1.68449 24.7824 1.78052 24.6825C1.87655 24.5827 1.95173 24.4646 2.00162 24.3351L3.46204 20.8133H8.98468L10.4451 24.3309L10.4534 24.3517C10.5361 24.5429 10.6741 24.7048 10.8494 24.8162C11.0247 24.9277 11.2293 24.9837 11.4367 24.977C11.6441 24.9703 11.8447 24.9011 12.0125 24.7785C12.1803 24.6559 12.3075 24.4855 12.3778 24.2893L15.1412 16.6504H24.2351L27.0006 24.2893C27.0994 24.5413 27.2922 24.7447 27.5379 24.8562C27.7837 24.9678 28.063 24.9786 28.3165 24.8864C28.5701 24.7943 28.7779 24.6064 28.8958 24.3628C29.0136 24.1191 29.0323 23.8389 28.9478 23.5816L20.6618 0.685656ZM19.6882 4.08466L23.4832 14.5689H15.8952L19.6882 4.08466ZM6.22336 14.1526L8.12293 18.7318H4.32378L6.22336 14.1526Z" fill="#CD7F32"/>
</svg>
